<?xml version="1.0" encoding="utf-8"?>
<!-- Generator: Adobe Illustrator 24.2.3, SVG Export Plug-In . SVG Version: 6.00 Build 0)  -->
<svg version="1.1" id="Layer_1" xmlns="http://www.w3.org/2000/svg" xmlns:xlink="http://www.w3.org/1999/xlink" x="0px" y="0px"
	 viewBox="0 0 880 180" style="enable-background:new 0 0 880 180;" xml:space="preserve">
<style type="text/css">
	.st0{fill:#F8C300;}
	.st1{fill:#FFFFFF;}
	.st2{fill:#00923F;}
	.st3{fill:#DA251D;}
</style>
<g>
	<g>
		<g>
			<g>
				<circle cx="45.5" cy="133.1" r="45.2"/>
				<circle class="st0" cx="45.5" cy="133.1" r="43.4"/>
				<circle class="st1" cx="45.5" cy="149" r="25.5"/>
				<path d="M41.1,155.5c0,2.7,0.9,5.7,4.2,5.7c3.1,0,4.3-2.5,4.3-5.5c0-3.8-1.3-5.7-5-5.7h-1.9v-3.5h1.8c3.3,0,4.4-2.3,4.4-5.3
					c0-2.2-1-4.4-3.6-4.4c-3,0-3.9,2.6-3.9,5.4h-4.7c0-5.7,3-8.9,8.9-8.9c3.7,0,8.2,1.7,8.2,7.9c0,3.2-1.9,6.3-4.9,6.7v0.1
					c3.2,0.3,5.6,2.8,5.6,7.1c0,6.1-3,9.5-9.4,9.5c-5.6,0-8.8-2.7-8.8-9.2L41.1,155.5L41.1,155.5z"/>
			</g>
			<g>
				<circle cx="147.9" cy="133.1" r="45.2"/>
				<circle class="st2" cx="147.9" cy="133.1" r="43.4"/>
				<circle class="st1" cx="147.9" cy="149" r="25.5"/>
				<path d="M147.9,133.3c5.9,0,9.2,3.7,9.2,15.7c0,11.9-3.3,15.7-9.2,15.7s-9.2-3.7-9.2-15.7C138.7,137.1,142,133.3,147.9,133.3z
					 M147.9,161.2c3.4,0,4.3-3.3,4.3-12.2s-0.9-12.2-4.3-12.2s-4.3,3.3-4.3,12.2C143.7,158,144.6,161.2,147.9,161.2z"/>
			</g>
		</g>
		<g>
			<circle cx="96.6" cy="46.9" r="45.2"/>
			<circle class="st3" cx="96.6" cy="46.9" r="43.4"/>
			<circle class="st1" cx="96.6" cy="62.7" r="25.5"/>
			<path d="M100.4,54.5c0-1.8-0.8-4-3.3-4c-4.6,0-4.9,6.1-4.9,10.6l0.1,0.1c1.2-2.2,3.3-3.3,6-3.3c4.2,0,7.6,3,7.6,9.2
				c0,7.1-2.9,11.3-9.4,11.3c-7.8,0-9.2-5.9-9.2-14.7c0-9.2,1.7-16.6,9.8-16.6c5.4,0,8.3,2.4,8.3,7.5L100.4,54.5L100.4,54.5z
				 M96.9,74.9c3,0,4.1-3,4.1-6.6c0-4.3-1.3-6.6-4.1-6.6c-3.6,0-4.3,3.2-4.3,6.9C92.6,72.1,94,74.9,96.9,74.9z"/>
		</g>
	</g>
	<g>
		<path d="M305.7,86.7v39.1c-3.7,1.9-8.2,3.3-13.5,4.4s-10.7,1.6-16.2,1.6c-8.4,0-15.7-1.7-21.9-5c-6.2-3.4-10.9-8.2-14.2-14.5
			S235,98.5,235,89.9s1.6-16,4.9-22.3c3.3-6.3,8-11.1,14-14.5c6.1-3.4,13.2-5,21.4-5c5.7,0,11.1,0.8,16.1,2.5s9.2,4,12.5,7.1
			l-5,10.8c-3.8-2.9-7.5-5-11.2-6.3s-7.7-1.9-12.1-1.9c-8.4,0-14.8,2.5-19.1,7.5c-4.3,5-6.4,12.4-6.4,22.2
			c0,20.1,8.8,30.1,26.4,30.1c5.2,0,10.5-0.7,15.8-2.2V97.4h-17.6V86.7H305.7z"/>
		<path d="M321.2,130.8V49.2h14.5v81.6H321.2z"/>
		<path d="M361.3,128.2c-4.4-2.4-7.7-5.8-10.1-10.3s-3.6-9.7-3.6-15.6s1.2-11.1,3.6-15.6c2.4-4.4,5.8-7.9,10.1-10.2
			c4.4-2.4,9.4-3.6,15.2-3.6c5.8,0,10.9,1.2,15.2,3.6c4.4,2.4,7.7,5.8,10.1,10.2c2.4,4.4,3.5,9.6,3.5,15.6c0,5.9-1.2,11.2-3.5,15.6
			c-2.4,4.5-5.7,7.9-10.1,10.3c-4.4,2.4-9.4,3.6-15.2,3.6C370.7,131.8,365.6,130.6,361.3,128.2z M387.1,115.9
			c2.5-3.1,3.7-7.6,3.7-13.7c0-5.9-1.2-10.5-3.7-13.6s-6-4.7-10.7-4.7c-4.6,0-8.2,1.6-10.7,4.7s-3.8,7.7-3.8,13.6
			c0,6,1.2,10.6,3.7,13.7s6,4.6,10.7,4.6C381.1,120.5,384.7,119,387.1,115.9z"/>
		<path d="M462.9,76.4c3.8,2.4,6.7,5.8,8.9,10.2c2.1,4.4,3.2,9.5,3.2,15.4s-1.1,11.1-3.2,15.6s-5.1,8-8.9,10.5
			c-3.8,2.5-8.2,3.7-13,3.7c-4.1,0-7.7-0.9-10.9-2.7c-3.2-1.8-5.7-4.2-7.4-7.4v9.1h-14.2V49.2h14.5v33.2c1.7-3.1,4.1-5.5,7.3-7.1
			c3.2-1.7,6.8-2.5,10.8-2.5C454.7,72.8,459.1,74,462.9,76.4z M456.6,115.7c2.5-3.2,3.8-7.8,3.8-13.7c0-5.8-1.3-10.2-3.8-13.3
			c-2.5-3.1-6.1-4.6-10.7-4.6s-8.2,1.6-10.7,4.7s-3.8,7.6-3.8,13.5s1.3,10.4,3.8,13.6s6.1,4.7,10.7,4.7
			C450.5,120.5,454.1,118.9,456.6,115.7z"/>
		<path d="M528.9,78.6c3.9,3.9,5.8,9.8,5.8,17.8v34.4h-13.8v-8.7c-1.3,3-3.4,5.4-6.2,7.1c-2.8,1.7-6.1,2.5-9.8,2.5
			c-3.8,0-7.2-0.8-10.3-2.3c-3.1-1.5-5.5-3.7-7.3-6.4c-1.8-2.7-2.7-5.7-2.7-9c0-4.2,1.1-7.4,3.2-9.8s5.6-4.1,10.4-5.2
			s11.4-1.6,19.8-1.6h2.9v-2.7c0-3.9-0.8-6.6-2.5-8.3c-1.7-1.7-4.4-2.5-8.3-2.5c-3,0-6.2,0.5-9.4,1.6c-3.3,1-6.5,2.5-9.7,4.3
			l-4.1-10c3.2-2,7-3.7,11.5-5s8.7-2,12.7-2C519.1,72.8,525,74.7,528.9,78.6z M517.3,117.4c2.4-2.6,3.6-5.9,3.6-10V105h-2.1
			c-5.2,0-9.2,0.2-12,0.7c-2.9,0.5-4.9,1.3-6.1,2.4c-1.2,1.2-1.9,2.7-1.9,4.7c0,2.5,0.8,4.5,2.5,6.1s3.9,2.4,6.5,2.4
			C511.7,121.3,514.8,120,517.3,117.4z"/>
		<path d="M549.4,130.8V49.2h14.5v81.6H549.4z"/>
		<path d="M611.5,130.8V49.2h14.9v69.4h38.1v12.3h-53V130.8z"/>
		<path d="M684.7,128.2c-4.4-2.4-7.7-5.8-10.1-10.3c-2.4-4.5-3.6-9.7-3.6-15.6s1.2-11.1,3.6-15.6c2.4-4.4,5.8-7.9,10.1-10.2
			c4.4-2.4,9.4-3.6,15.2-3.6s10.9,1.2,15.2,3.6c4.4,2.4,7.7,5.8,10.1,10.2c2.4,4.4,3.5,9.6,3.5,15.6c0,5.9-1.2,11.2-3.5,15.6
			c-2.4,4.5-5.7,7.9-10.1,10.3c-4.4,2.4-9.4,3.6-15.2,3.6C694.2,131.8,689.1,130.6,684.7,128.2z M710.6,115.9
			c2.5-3.1,3.7-7.6,3.7-13.7c0-5.9-1.2-10.5-3.7-13.6s-6-4.7-10.7-4.7c-4.6,0-8.2,1.6-10.7,4.7s-3.8,7.7-3.8,13.6
			c0,6,1.2,10.6,3.7,13.7s6,4.6,10.7,4.6S708.1,119,710.6,115.9z"/>
		<path d="M774.7,120.5l-0.7,10.8c-2.3,0.2-4.4,0.3-6.4,0.3c-8,0-13.8-1.8-17.6-5.5s-5.7-9.1-5.7-16.4V85.1h-10.9V74.2h10.9V57.3
			h14.5v16.9h14.9v10.9h-14.9v24.4c0,7.6,3.5,11.3,10.5,11.3C771,120.9,772.8,120.7,774.7,120.5z"/>
		<path d="M816.6,120.5l-0.7,10.8c-2.3,0.2-4.4,0.3-6.4,0.3c-8,0-13.8-1.8-17.6-5.5s-5.7-9.1-5.7-16.4V85.1h-10.9V74.2h10.9V57.3
			h14.5v16.9h14.9v10.9h-14.9v24.4c0,7.6,3.5,11.3,10.5,11.3C812.9,120.9,814.7,120.7,816.6,120.5z"/>
		<path d="M835.6,128.2c-4.4-2.4-7.7-5.8-10.1-10.3c-2.4-4.5-3.6-9.7-3.6-15.6s1.2-11.1,3.6-15.6c2.4-4.4,5.8-7.9,10.1-10.2
			c4.4-2.4,9.4-3.6,15.2-3.6s10.9,1.2,15.2,3.6c4.4,2.4,7.7,5.8,10.1,10.2c2.4,4.4,3.5,9.6,3.5,15.6c0,5.9-1.2,11.2-3.5,15.6
			c-2.4,4.5-5.7,7.9-10.1,10.3c-4.4,2.4-9.4,3.6-15.2,3.6C845.1,131.8,840,130.6,835.6,128.2z M861.5,115.9
			c2.5-3.1,3.7-7.6,3.7-13.7c0-5.9-1.2-10.5-3.7-13.6s-6-4.7-10.7-4.7c-4.6,0-8.2,1.6-10.7,4.7s-3.8,7.7-3.8,13.6
			c0,6,1.2,10.6,3.7,13.7s6,4.6,10.7,4.6C855.5,120.5,859,119,861.5,115.9z"/>
	</g>
</g>
</svg>
